<svg width="168" height="46" viewBox="0 0 168 46" fill="none" xmlns="http://www.w3.org/2000/svg">
<path d="M39.01 25.2101C39.01 29.8501 38.97 34.4901 39.03 39.1301C39.06 41.0001 38.69 42.1001 36.43 42.0701C31.33 42.0001 26.05 41.1301 21.65 44.9001C20.97 45.4801 20.09 45.2101 19.45 44.6701C15.88 41.6901 11.63 41.8701 7.37 42.0201C6.71 42.0401 6.05 42.0001 5.39 41.9301C4.11 41.7801 3.58 40.8901 3.5 39.7501C3.4 38.2701 4.45 37.9801 5.6 38.0601C10.26 38.3801 15.22 36.8401 19.42 40.1801C20.25 40.8401 21.1 40.9101 21.95 40.2401C25 37.8401 28.58 37.8101 32.18 38.0601C34.27 38.2001 35.3 37.7201 35.25 35.2801C35.09 28.6601 35.13 22.0201 35.23 15.4001C35.26 13.3301 34.55 12.6301 32.49 12.6501C23.86 12.7301 15.24 12.7301 6.61 12.6501C4.53 12.6301 3.71 13.4001 3.86 15.4401C3.95 16.6301 3.87 17.8201 3.85 19.0201C3.82 20.5101 2.94 21.1401 1.55 21.1801C-0.0699968 21.2301 0.0400032 20.0301 0.0400032 18.9801C0.0200032 13.5301 0.0600032 8.10006 3.21539e-06 2.66006C-0.0199968 1.11006 0.360003 0.0100582 2.1 5.82172e-05C3.82 -0.00994178 3.77 1.27006 3.88 2.51006C4.39 8.66006 4.4 8.65006 10.66 8.65006C18.62 8.65006 26.6 8.88006 34.55 8.55006C38.43 8.39006 39.31 9.78006 39.07 13.2801C38.8 17.2401 39.01 21.2301 39.01 25.2101Z" fill="white"/>
<path d="M167.56 41.61C165.53 43.39 162.42 42.98 160.34 40.81C158.52 38.91 157.09 36.65 155.46 34.56C154.99 33.95 154.45 33.38 153.78 32.61C152.13 34.6 152.88 36.77 152.92 38.7C152.98 41.18 152.41 42.23 149.63 42.12C147.18 42.03 146.18 41.62 146.23 38.87C146.41 29.47 146.26 20.08 146.34 10.68C146.35 9.40003 145.46 7.42003 147.57 7.04003C149.49 6.70003 151.65 6.68003 152.31 9.33003L152.49 9.53003L152.41 9.79003C153.36 14.5 152.59 19.27 152.86 24C152.9 24.73 152.52 25.71 153.46 26.1C154.43 26.49 154.79 25.51 155.27 24.97C156.67 23.38 158.03 21.76 159.39 20.15C160.47 18.87 161.83 18.04 163.51 18.12C164.67 18.17 166.04 18.4 166.64 19.48C167.29 20.65 166.05 21.34 165.4 22.11C159.51 29.17 159.51 29.17 165.09 36.55C165.25 36.77 165.44 36.96 165.54 37.2C166.2 38.76 169.09 40.26 167.56 41.61Z" fill="#462B63"/>
<path d="M76.48 10.4601C76.54 12.6101 75.36 13.9601 73.12 14.0801C71.27 14.1801 69.41 14.1401 67.55 14.1401C62.35 14.1401 62.33 14.1401 62.52 19.3201C62.56 20.2201 62.83 21.1101 63 22.0201C65.23 22.0001 67.47 21.8701 69.68 21.9901C70.72 22.0501 72.42 21.1901 72.66 22.8301C72.86 24.1101 73.88 25.9501 71.76 26.8501C71.37 26.9101 70.98 27.0301 70.59 27.0301C62.5 27.2901 62.5 27.2901 62.51 35.5601C62.51 36.4901 62.39 37.4301 62.53 38.3401C63 41.3001 61.85 42.1001 58.86 42.1401C55.69 42.1901 55.59 40.8001 55.62 38.3801C55.72 29.6401 55.73 20.8901 55.61 12.1401C55.58 9.70008 56.02 8.56008 58.82 8.70008C63.59 8.95008 68.38 8.73008 73.15 8.80008C74.47 8.83008 76.42 8.13008 76.48 10.4601Z" fill="#462B63"/>
<path d="M121.2 30.51C121.27 20.88 130 15.24 138.5 18.94C139.1 19.2 139.69 19.55 140.2 19.96C141.78 21.23 141.45 22.66 140.54 24.19C139.35 26.19 138.6 24.25 137.74 23.9C134.67 22.62 131.76 22.36 129.42 25.2C127.57 27.44 127.69 33.51 129.59 35.74C131.86 38.4 134.64 38.27 137.54 36.93C138.64 36.42 139.67 34.99 140.61 37.22C141.34 38.94 141.25 40.2 139.65 41.35C134.35 45.18 124.87 42.49 122.33 36.35C121.52 34.36 121.1 32.28 121.2 30.51Z" fill="#462B63"/>
<path d="M86.86 42.4201C84.75 42.6801 82.48 42.5701 82.07 39.6401C81.41 29.2101 81.61 18.8001 81.97 8.37009C82.49 5.71009 84.44 7.05009 85.72 7.22009C87.53 7.48009 88.31 8.99009 88.35 10.7301C88.43 14.0401 88.41 17.3501 88.42 20.6701C88.43 26.6401 88.48 32.6001 88.39 38.5701C88.36 39.9701 89.3 42.1201 86.86 42.4201Z" fill="#462B63"/>
<path d="M22.39 25.5001C22.07 27.5201 20.81 28.3901 19.09 28.2801C17.51 28.1801 16.41 27.0701 16.45 25.4401C16.5 23.6701 17.52 22.5101 19.45 22.6001C21.33 22.6801 22.17 23.8801 22.39 25.5001Z" fill="#443169"/>
<path d="M28.6801 22.5701C30.8301 22.6301 31.8001 23.8101 31.8301 25.5801C31.8701 27.3001 30.6401 28.2901 29.0401 28.3101C27.2201 28.3301 26.0901 27.2201 26.1301 25.3201C26.1701 23.6101 27.1501 22.6801 28.6801 22.5701Z" fill="#443169"/>
<path d="M12.7 25.3901C12.57 27.1901 11.62 28.2701 9.96999 28.2901C8.17999 28.3101 6.96999 27.3501 6.98999 25.3801C7.00999 23.6801 7.84999 22.6301 9.61999 22.5901C11.56 22.5601 12.46 23.7001 12.7 25.3901Z" fill="#443169"/>
<path fill-rule="evenodd" clip-rule="evenodd" d="M104.88 42.8C112.14 42.7801 116.52 37.9401 116.4 30.0801C116.28 22.2 112.16 17.8601 104.87 17.9401C97.69 18.0101 93.08 23.0501 93.21 30.6701C93.34 38.36 97.64 42.82 104.88 42.8ZM100.97 35.3201C100.08 33.7401 99.9 32.0801 99.88 30.3501C99.86 28.4701 100.12 26.67 101.19 25.0501C101.68 24.3133 102.261 23.7776 102.926 23.44C103.713 23.0356 104.618 22.9123 105.63 23.0701C107.31 23.3301 108.58 24.2801 109.1 25.9401C110.03 28.9301 109.97 31.9701 109.02 34.9201C108.45 36.6901 107.06 37.7301 105.14 37.8001C105.067 37.8028 104.995 37.804 104.924 37.8039C103.143 37.8043 101.875 36.9287 100.97 35.3201Z" fill="#462B63"/>
</svg>
