<svg width="28" height="27" viewBox="0 0 28 27" fill="none" xmlns="http://www.w3.org/2000/svg">
<path d="M20.0833 1H7.99992C4.6632 1 1.95825 3.70495 1.95825 7.04167V19.125C1.95825 22.4617 4.6632 25.1667 7.99992 25.1667H20.0833C23.42 25.1667 26.1249 22.4617 26.1249 19.125V7.04167C26.1249 3.70495 23.42 1 20.0833 1Z" stroke="white" stroke-width="2" stroke-linecap="round" stroke-linejoin="round"/>
<path d="M18.8749 12.3221C19.024 13.3278 18.8522 14.3548 18.384 15.2572C17.9158 16.1596 17.1749 16.8913 16.2669 17.3484C15.3588 17.8055 14.3297 17.9646 13.326 17.803C12.3222 17.6415 11.395 17.1676 10.6762 16.4488C9.95729 15.7299 9.4834 14.8027 9.32189 13.799C9.16038 12.7952 9.31947 11.7662 9.77653 10.8581C10.2336 9.94999 10.9654 9.20914 11.8677 8.74091C12.7701 8.27269 13.7972 8.10092 14.8028 8.25004C15.8286 8.40215 16.7783 8.88014 17.5115 9.61341C18.2448 10.3467 18.7228 11.2963 18.8749 12.3221Z" stroke="white" stroke-width="2" stroke-linecap="round" stroke-linejoin="round"/>
<path d="M20.6875 6.4375H20.6987" stroke="white" stroke-width="2" stroke-linecap="round" stroke-linejoin="round"/>
</svg>
