<svg width="26" height="23" viewBox="0 0 26 23" fill="none" xmlns="http://www.w3.org/2000/svg">
<path d="M17.875 7.25C19.7978 7.25 21.6419 8.01384 23.0015 9.37348C24.3612 10.7331 25.125 12.5772 25.125 14.5V22.9583H20.2917V14.5C20.2917 13.8591 20.0371 13.2444 19.5838 12.7912C19.1306 12.3379 18.5159 12.0833 17.875 12.0833C17.2341 12.0833 16.6194 12.3379 16.1662 12.7912C15.7129 13.2444 15.4583 13.8591 15.4583 14.5V22.9583H10.625V14.5C10.625 12.5772 11.3888 10.7331 12.7485 9.37348C14.1081 8.01384 15.9522 7.25 17.875 7.25V7.25Z" fill="white"/>
<path d="M5.79158 8.45837H0.958252V22.9584H5.79158V8.45837Z" fill="white"/>
<path d="M3.37492 4.83333C4.70961 4.83333 5.79158 3.75135 5.79158 2.41667C5.79158 1.08198 4.70961 0 3.37492 0C2.04023 0 0.958252 1.08198 0.958252 2.41667C0.958252 3.75135 2.04023 4.83333 3.37492 4.83333Z" fill="white"/>
</svg>
