<svg width="28" height="22" viewBox="0 0 28 22" fill="none" xmlns="http://www.w3.org/2000/svg">
<path d="M27.3333 0.20844C26.1762 1.02464 24.895 1.64891 23.5392 2.05719C22.8114 1.22043 21.8443 0.627359 20.7685 0.358184C19.6927 0.0890085 18.5602 0.156718 17.5242 0.552154C16.4881 0.947591 15.5985 1.65167 14.9757 2.56918C14.3528 3.48669 14.0268 4.57335 14.0417 5.68219V6.89052C11.9182 6.94558 9.81404 6.47463 7.91664 5.5196C6.01923 4.56458 4.38747 3.15512 3.16667 1.41677C3.16667 1.41677 -1.66667 12.2918 9.20833 17.1251C6.7198 18.8143 3.75531 19.6613 0.75 19.5418C11.625 25.5834 24.9167 19.5418 24.9167 5.64594C24.9156 5.30936 24.8832 4.97362 24.82 4.64302C26.0532 3.42683 26.9235 1.8913 27.3333 0.20844V0.20844Z" fill="white"/>
</svg>
